<svg xmlns="http://www.w3.org/2000/svg" width="31" height="31" fill="none"><path fill="#fff" d="M8.99 0h13.02C26.97 0 31 4.03 31 8.99v13.02A8.99 8.99 0 0 1 22.01 31H8.99C4.03 31 0 26.97 0 22.01V8.99A8.99 8.99 0 0 1 8.99 0m-.31 3.1A5.58 5.58 0 0 0 3.1 8.68v13.64a5.576 5.576 0 0 0 5.58 5.58h13.64a5.58 5.58 0 0 0 5.58-5.58V8.68a5.576 5.576 0 0 0-5.58-5.58zm14.958 2.325a1.937 1.937 0 1 1 0 3.875 1.937 1.937 0 0 1 0-3.875M15.5 7.75a7.75 7.75 0 1 1 0 15.5 7.75 7.75 0 0 1 0-15.5m0 3.1a4.65 4.65 0 1 0 0 9.3 4.65 4.65 0 0 0 0-9.3"/></svg>