<svg xmlns="http://www.w3.org/2000/svg" width="28" height="28" fill="none"><path fill="#fff" d="M25.693 0H2.013A2.004 2.004 0 0 0 0 2.013v23.724c0 1.073.894 2.013 2.013 2.013h23.588a2 2 0 0 0 2.015-2.013V1.969C27.706.896 26.81 0 25.693 0M8.191 23.588H4.119V10.382h4.073zM6.133 8.548a2.36 2.36 0 0 1-2.371-2.372 2.387 2.387 0 0 1 2.37-2.371 2.39 2.39 0 0 1 2.375 2.37c0 1.297-.987 2.374-2.374 2.374m17.5 15.04h-4.072v-6.402c0-1.521-.045-3.534-2.148-3.534-2.149 0-2.462 1.7-2.462 3.4v6.535h-4.073V10.383h3.984v1.835h.044c.582-1.073 1.881-2.148 3.895-2.148 4.162 0 4.922 2.686 4.922 6.357v7.16z"/></svg>