<svg xmlns="http://www.w3.org/2000/svg" width="12" height="8" fill="none"><path fill="#fff" d="M.667 8a.64.64 0 0 1-.475-.192A.65.65 0 0 1 0 7.333q0-.282.192-.474a.65.65 0 0 1 .475-.192h10.666q.284 0 .476.192a.64.64 0 0 1 .191.474.65.65 0 0 1-.192.476.64.64 0 0 1-.475.191zm0-3.333a.64.64 0 0 1-.475-.192A.65.65 0 0 1 0 4q0-.283.192-.475a.65.65 0 0 1 .475-.192h10.666q.284 0 .476.192A.64.64 0 0 1 12 4a.65.65 0 0 1-.192.475.64.64 0 0 1-.475.192zm0-3.334a.64.64 0 0 1-.475-.192A.65.65 0 0 1 0 .667Q0 .384.192.192A.65.65 0 0 1 .667 0h10.666q.284 0 .476.192A.64.64 0 0 1 12 .667a.65.65 0 0 1-.192.475.64.64 0 0 1-.475.191z"/></svg>