<svg xmlns="http://www.w3.org/2000/svg" width="34" height="28" fill="none"><path fill="#fff" d="M23.57 3.366a4.94 4.94 0 0 0-3.445 1.397 4.86 4.86 0 0 0-1.471 3.392l-.048 2.649a1 1 0 0 1-.355.747 1.02 1.02 0 0 1-.798.234l-2.647-.357c-3.48-.471-6.817-2.062-10.019-4.708-1.012 5.568.966 9.424 5.735 12.4l2.961 1.847a1.01 1.01 0 0 1 .477.82 1 1 0 0 1-.417.85l-2.699 1.956c1.605.1 3.13.029 4.394-.22 7.998-1.585 13.315-7.556 13.315-17.406 0-.804-1.717-3.6-4.983-3.6m-8.307 4.727a8.2 8.2 0 0 1 1.47-4.533 8.3 8.3 0 0 1 3.75-2.97 8.37 8.37 0 0 1 4.78-.417 8.33 8.33 0 0 1 4.214 2.276c1.206-.008 2.231.295 4.523-1.084-.566 2.758-.848 3.956-2.056 5.602 0 12.854-7.962 19.105-16.043 20.704C10.363 28.768 2.305 26.966 0 24.575c1.175-.091 5.955-.601 8.718-2.608C6.378 20.437-2.924 15.004 3.19.4q4.305 4.99 8.73 6.79c1.962.8 2.445.784 3.345.905"/></svg>