<svg xmlns="http://www.w3.org/2000/svg" width="30" height="31" fill="none"><path fill="#fff" d="M25.628 4.51a14.8 14.8 0 0 0-4.843-3.347A14.5 14.5 0 0 0 15.06 0C6.83 0 .12 6.898.12 15.36c0 2.713.694 5.348 1.99 7.673L0 31l7.915-2.139a14.6 14.6 0 0 0 7.145 1.875c8.231 0 14.94-6.897 14.94-15.36 0-4.107-1.553-7.967-4.372-10.865M15.06 28.134c-2.23 0-4.417-.62-6.331-1.783l-.453-.279-4.703 1.271 1.251-4.712-.301-.48a13.07 13.07 0 0 1-1.9-6.79c0-7.036 5.578-12.771 12.422-12.771 3.317 0 6.437 1.333 8.774 3.75a12.7 12.7 0 0 1 2.698 4.144 13 13 0 0 1 .935 4.893c.03 7.037-5.548 12.757-12.392 12.757m6.814-9.548c-.377-.187-2.216-1.117-2.547-1.256-.347-.124-.588-.186-.845.186-.256.387-.964 1.255-1.175 1.503-.211.264-.438.295-.814.093-.377-.186-1.583-.604-3-1.906-1.116-1.023-1.855-2.278-2.08-2.666-.212-.387-.031-.589.165-.79.166-.171.377-.45.558-.667.18-.217.256-.387.377-.635.12-.264.06-.48-.03-.667-.091-.186-.845-2.077-1.146-2.852-.302-.744-.618-.65-.844-.666h-.724c-.256 0-.648.093-.995.48-.332.388-1.297 1.318-1.297 3.209 0 1.89 1.342 3.72 1.523 3.967.18.264 2.638 4.139 6.377 5.797.89.404 1.583.636 2.126.806.889.295 1.703.248 2.351.155.724-.108 2.216-.93 2.518-1.828.316-.9.316-1.659.21-1.83-.105-.17-.33-.248-.708-.434"/></svg>